REM DIRINDEX 1\2,1\3,1\4,1\5
REM DIRNAME "folder01","folder02","folder03","folder04","folder05"
TITLE ""
FILE "1Q_t_1968-1977.mp3" MP3
  TRACK 01 AUDIO
    TITLE "3:cjc172_6910"
    INDEX 01 00:00:00
  TRACK 02 AUDIO
    TITLE "0:"
    INDEX 01 00:01:10
  TRACK 03 AUDIO
    TITLE "4:cjc172_6911"
    INDEX 01 00:01:22
  TRACK 04 AUDIO
    TITLE "0:"
    INDEX 01 00:03:54
  TRACK 05 AUDIO
    TITLE "5:cjc172_6912"
    INDEX 01 00:03:65
  TRACK 06 AUDIO
    TITLE "0:"
    INDEX 01 00:08:27
  TRACK 07 AUDIO
    TITLE "3:cjc172_6913"
    INDEX 01 00:08:74
  TRACK 08 AUDIO
    TITLE "0:"
    INDEX 01 00:10:13
  TRACK 09 AUDIO
    TITLE "4:cjc172_6914"
    INDEX 01 00:10:22
  TRACK 10 AUDIO
    TITLE "0:"
    INDEX 01 00:11:30
  TRACK 11 AUDIO
    TITLE "5:cjc172_6915"
    INDEX 01 00:11:39
  TRACK 12 AUDIO
    TITLE "0:"
    INDEX 01 00:16:56
  TRACK 13 AUDIO
    TITLE "3:cjc172_6916"
    INDEX 01 00:17:28
  TRACK 14 AUDIO
    TITLE "0:"
    INDEX 01 00:18:47
  TRACK 15 AUDIO
    TITLE "4:cjc172_6917"
    INDEX 01 00:18:59
  TRACK 16 AUDIO
    TITLE "0:"
    INDEX 01 00:21:38
  TRACK 17 AUDIO
    TITLE "5:cjc172_6918"
    INDEX 01 00:21:46
  TRACK 18 AUDIO
    TITLE "0:"
    INDEX 01 00:26:41
  TRACK 19 AUDIO
    TITLE "3:cjc172_6919"
    INDEX 01 00:27:15
  TRACK 20 AUDIO
    TITLE "0:"
    INDEX 01 00:28:42
  TRACK 21 AUDIO
    TITLE "4:cjc172_6920"
    INDEX 01 00:28:52
  TRACK 22 AUDIO
    TITLE "0:"
    INDEX 01 00:30:00
  TRACK 23 AUDIO
    TITLE "5:cjc172_6921"
    INDEX 01 00:30:07
  TRACK 24 AUDIO
    TITLE "0:"
    INDEX 01 00:35:13
  TRACK 25 AUDIO
    TITLE "3:cjc172_6922"
    INDEX 01 00:35:60
  TRACK 26 AUDIO
    TITLE "0:"
    INDEX 01 00:37:00
  TRACK 27 AUDIO
    TITLE "4:cjc172_6923"
    INDEX 01 00:37:09
  TRACK 28 AUDIO
    TITLE "0:"
    INDEX 01 00:38:40
  TRACK 29 AUDIO
    TITLE "5:cjc172_6924"
    INDEX 01 00:38:48
  TRACK 30 AUDIO
    TITLE "0:"
    INDEX 01 00:42:66
  TRACK 31 AUDIO
    TITLE "3:cjc172_6925"
    INDEX 01 00:43:40
  TRACK 32 AUDIO
    TITLE "0:"
    INDEX 01 00:44:60
  TRACK 33 AUDIO
    TITLE "4:cjc172_6926"
    INDEX 01 00:44:72
  TRACK 34 AUDIO
    TITLE "0:"
    INDEX 01 00:46:12
  TRACK 35 AUDIO
    TITLE "5:cjc172_6927"
    INDEX 01 00:46:22
  TRACK 36 AUDIO
    TITLE "0:"
    INDEX 01 00:51:33
  TRACK 37 AUDIO
    TITLE "3:cjc172_6928"
    INDEX 01 00:52:03
  TRACK 38 AUDIO
    TITLE "0:"
    INDEX 01 00:53:20
  TRACK 39 AUDIO
    TITLE "4:cjc172_6929"
    INDEX 01 00:53:34
  TRACK 40 AUDIO
    TITLE "0:"
    INDEX 01 00:56:34
  TRACK 41 AUDIO
    TITLE "5:cjc172_6930"
    INDEX 01 00:56:44
  TRACK 42 AUDIO
    TITLE "0:"
    INDEX 01 01:00:56
  TRACK 43 AUDIO
    TITLE "3:cjc172_6931"
    INDEX 01 01:01:30
  TRACK 44 AUDIO
    TITLE "0:"
    INDEX 01 01:02:64
  TRACK 45 AUDIO
    TITLE "4:cjc172_6932"
    INDEX 01 01:02:72
  TRACK 46 AUDIO
    TITLE "0:"
    INDEX 01 01:06:35
  TRACK 47 AUDIO
    TITLE "5:cjc172_6933"
    INDEX 01 01:06:44
  TRACK 48 AUDIO
    TITLE "0:"
    INDEX 01 01:11:16
  TRACK 49 AUDIO
    TITLE "3:cjc172_6934"
    INDEX 01 01:11:61
  TRACK 50 AUDIO
    TITLE "0:"
    INDEX 01 01:12:74
  TRACK 51 AUDIO
    TITLE "4:cjc172_6935"
    INDEX 01 01:13:09
  TRACK 52 AUDIO
    TITLE "0:"
    INDEX 01 01:15:47
  TRACK 53 AUDIO
    TITLE "5:cjc172_6936"
    INDEX 01 01:15:59
  TRACK 54 AUDIO
    TITLE "0:"
    INDEX 01 01:20:35
  TRACK 55 AUDIO
    TITLE "3:cjc172_6937"
    INDEX 01 01:21:07
  TRACK 56 AUDIO
    TITLE "0:"
    INDEX 01 01:22:36
  TRACK 57 AUDIO
    TITLE "4:cjc172_6938"
    INDEX 01 01:22:45
  TRACK 58 AUDIO
    TITLE "0:"
    INDEX 01 01:24:05
  TRACK 59 AUDIO
    TITLE "5:cjc172_6939"
    INDEX 01 01:24:15
  TRACK 60 AUDIO
    TITLE "0:"
    INDEX 01 01:29:45
